<svg xmlns="http://www.w3.org/2000/svg" viewBox="0 0 24 24" fill="#244c5a"><path d="M23.328 11.326L20.916.664A.753.753 0 0 0 20.2.09L14.861 1.6a3.038 3.038 0 0 0-2.178-.915 3.04 3.04 0 0 0-2.178.915L5.165.09a.753.753 0 0 0-.716.573L2.037 11.326a.753.753 0 0 0 .32.78l4.772 3.26a3.039 3.039 0 0 0 .073 2.322l-3.05 3.952a.753.753 0 0 0 .14.98l5.04 3.904a.753.753 0 0 0 .905.035l3.536-2.648a3.039 3.039 0 0 0 1.136.218c.402 0 .788-.078 1.14-.22l3.533 2.65a.753.753 0 0 0 .905-.035l5.04-3.903a.753.753 0 0 0 .14-.98l-3.048-3.953a3.04 3.04 0 0 0 .073-2.322l4.772-3.26a.753.753 0 0 0 .32-.78v.001zm-10.645 2.746a1.548 1.548 0 1 1 0-3.095 1.548 1.548 0 0 1 0 3.095z"/></svg>
